<svg width="42" height="42" viewBox="0 0 42 42" fill="none" xmlns="http://www.w3.org/2000/svg">
<g clip-path="url(#clip0_83_111)">
<path d="M21.6352 26.1572C21.6352 22.9232 20.097 20.5327 16.919 19.6367C19.2377 18.5325 20.447 16.8595 20.447 14.2573C20.447 9.12625 16.611 7.875 12.1852 7.875H0V33.6368H12.5265C17.2235 33.6368 21.6352 31.3915 21.6352 26.1572ZM5.6805 12.2727H11.011C13.0602 12.2727 14.9047 12.8467 14.9047 15.2162C14.9047 17.4037 13.4697 18.284 11.4397 18.284H5.6805V12.2727ZM5.67875 29.2618V22.1672H11.8702C14.371 22.1672 15.953 23.2067 15.953 25.8458C15.953 28.448 14.0647 29.2618 11.753 29.2618H5.67875ZM32.893 34.125C37.3625 34.125 40.257 32.1178 41.65 27.8512H37.114C36.6257 29.4438 34.6132 30.2855 33.0522 30.2855C30.0405 30.2855 28.4585 28.5268 28.4585 25.5378H41.9562C42.3832 19.5563 39.0512 14.4585 32.8912 14.4585C27.188 14.4585 23.317 18.732 23.317 24.3302C23.317 30.1402 26.985 34.125 32.893 34.125ZM32.732 18.3295C35.3132 18.3295 36.6117 19.8415 36.8287 22.3143H28.4655C28.6353 19.8625 30.268 18.3295 32.732 18.3295ZM27.4172 9.22775H37.8962V11.7653H27.4172V9.22775Z" fill="#595959"/>
</g>
<defs>
<clipPath id="clip0_83_111">
<rect width="42" height="42" fill="white"/>
</clipPath>
</defs>
</svg>
