<svg width="50" height="50" viewBox="0 0 50 50" fill="none" xmlns="http://www.w3.org/2000/svg">
<path d="M35 2.58618C31.1527 2.58618 27.6552 4.04692 25 6.42817C22.3448 4.04692 18.8473 2.58618 15 2.58618C6.71572 2.58618 0 9.3019 0 17.5862C0 27.9094 11.2069 40.4094 25 47.4138C38.7931 40.4095 50 27.9095 50 17.5863C50 9.3019 43.2843 2.58618 35 2.58618Z" fill="#FF5A4E"/>
<path d="M10.3448 20.1823C10.3448 12.5072 14.5408 5.99771 20.3831 3.59243C18.6666 2.92637 16.8412 2.58516 15 2.58618C6.71572 2.58618 0 9.30191 0 17.5862C0 27.9094 11.2069 40.4094 25 47.4138C25.0113 47.408 25.0226 47.4019 25.034 47.396C16.3774 39.3177 10.3448 29.0646 10.3448 20.1823Z" fill="#EB443F"/>
<path d="M35 2.58618C34.6722 2.58618 34.351 2.61118 34.0285 2.63208C40.532 3.10474 45.6896 9.60893 45.6896 17.5862C45.6896 27.9094 36.4149 40.4094 25 47.4138C38.7931 40.4095 50 27.9095 50 17.5863C50 9.3019 43.2843 2.58618 35 2.58618Z" fill="#FF7E68"/>
<path d="M40.5174 18.9654C41.9457 18.9654 43.1036 17.8075 43.1036 16.3792C43.1036 14.9509 41.9457 13.793 40.5174 13.793C39.089 13.793 37.9312 14.9509 37.9312 16.3792C37.9312 17.8075 39.089 18.9654 40.5174 18.9654Z" fill="#FF9A79"/>
<path d="M39.2242 12.0688C39.9384 12.0688 40.5173 11.4899 40.5173 10.7757C40.5173 10.0616 39.9384 9.48267 39.2242 9.48267C38.5101 9.48267 37.9312 10.0616 37.9312 10.7757C37.9312 11.4899 38.5101 12.0688 39.2242 12.0688Z" fill="#FFBEAC"/>
</svg>
