<svg width="220" height="42" viewBox="0 0 220 42" fill="none" xmlns="http://www.w3.org/2000/svg">
<path d="M79.2081 12.4362V30H73.7256V21.2429L71.0216 30H66.3081L63.6041 21.2429V30H58.0968V12.4362H64.8445L68.7145 22.9795L72.4852 12.4362H79.2081ZM92.9558 27.3456H87.1012L86.2329 30H80.4527L86.8779 12.4362H93.2286L99.629 30H93.824L92.9558 27.3456ZM91.6161 23.2027L90.0285 18.3156L88.4408 23.2027H91.6161ZM108.198 12.4362C110.034 12.4362 111.638 12.8083 113.011 13.5526C114.4 14.2968 115.467 15.3304 116.211 16.6535C116.956 17.9766 117.328 19.4816 117.328 21.1685C117.328 22.8389 116.956 24.3439 116.211 25.6835C115.467 27.0231 114.4 28.0815 113.011 28.8589C111.638 29.6196 110.034 30 108.198 30H100.88V12.4362H108.198ZM107.702 25.0881C108.943 25.0881 109.927 24.7491 110.654 24.071C111.382 23.3929 111.746 22.4254 111.746 21.1685C111.746 19.9116 111.382 18.9441 110.654 18.266C109.927 17.5879 108.943 17.2489 107.702 17.2489H106.388V25.0881H107.702ZM130.132 19.2583V23.7981H118.572V19.2583H130.132ZM133.114 21.1933C133.114 19.4568 133.461 17.9104 134.156 16.5543C134.867 15.1981 135.876 14.148 137.182 13.4037C138.489 12.643 140.027 12.2626 141.796 12.2626C143.318 12.2626 144.674 12.552 145.865 13.1308C147.072 13.6931 148.048 14.4953 148.792 15.5372C149.553 16.5791 150.057 17.7947 150.305 19.1839H144.5C144.236 18.605 143.855 18.1585 143.359 17.8443C142.88 17.5135 142.325 17.3481 141.697 17.3481C140.771 17.3481 140.035 17.6954 139.489 18.39C138.96 19.0847 138.695 20.0191 138.695 21.1933C138.695 22.3675 138.96 23.302 139.489 23.9966C140.035 24.6912 140.771 25.0385 141.697 25.0385C142.325 25.0385 142.88 24.8814 143.359 24.5671C143.855 24.2364 144.236 23.7816 144.5 23.2027H150.305C150.057 24.5919 149.553 25.8075 148.792 26.8494C148.048 27.8914 147.072 28.7017 145.865 29.2806C144.674 29.8429 143.318 30.124 141.796 30.124C140.027 30.124 138.489 29.7519 137.182 29.0077C135.876 28.2469 134.867 27.1885 134.156 25.8323C133.461 24.4762 133.114 22.9298 133.114 21.1933ZM160.847 30.1737C159.193 30.1737 157.671 29.785 156.282 29.0077C154.909 28.2304 153.818 27.1554 153.008 25.7827C152.197 24.41 151.792 22.8637 151.792 21.1437C151.792 19.4237 152.197 17.8774 153.008 16.5047C153.818 15.132 154.909 14.0653 156.282 13.3045C157.671 12.5272 159.193 12.1385 160.847 12.1385C162.501 12.1385 164.014 12.5272 165.387 13.3045C166.759 14.0653 167.842 15.132 168.636 16.5047C169.447 17.8774 169.852 19.4237 169.852 21.1437C169.852 22.8637 169.447 24.41 168.636 25.7827C167.842 27.1554 166.751 28.2304 165.362 29.0077C163.989 29.785 162.484 30.1737 160.847 30.1737ZM160.847 25.0385C161.938 25.0385 162.782 24.6912 163.377 23.9966C163.973 23.2854 164.27 22.3345 164.27 21.1437C164.27 19.9364 163.973 18.9854 163.377 18.2908C162.782 17.5797 161.938 17.2241 160.847 17.2241C159.739 17.2241 158.887 17.5797 158.292 18.2908C157.696 18.9854 157.399 19.9364 157.399 21.1437C157.399 22.3345 157.696 23.2854 158.292 23.9966C158.887 24.6912 159.739 25.0385 160.847 25.0385ZM179.157 12.4362C180.993 12.4362 182.597 12.8083 183.97 13.5526C185.359 14.2968 186.426 15.3304 187.17 16.6535C187.914 17.9766 188.286 19.4816 188.286 21.1685C188.286 22.8389 187.914 24.3439 187.17 25.6835C186.426 27.0231 185.359 28.0815 183.97 28.8589C182.597 29.6196 180.993 30 179.157 30H171.839V12.4362H179.157ZM178.661 25.0881C179.901 25.0881 180.885 24.7491 181.613 24.071C182.341 23.3929 182.704 22.4254 182.704 21.1685C182.704 19.9116 182.341 18.9441 181.613 18.266C180.885 17.5879 179.901 17.2489 178.661 17.2489H177.346V25.0881H178.661ZM195.782 16.8272V18.9854H201.24V23.1283H195.782V25.6091H201.984V30H190.275V12.4362H201.984V16.8272H195.782ZM212.891 30L209.592 23.6989H209.567V30H204.059V12.4362H212.246C213.668 12.4362 214.884 12.6926 215.893 13.2053C216.902 13.7014 217.654 14.3878 218.15 15.2643C218.663 16.1243 218.919 17.1001 218.919 18.1916C218.919 19.3658 218.588 20.4077 217.927 21.3173C217.282 22.227 216.347 22.8802 215.124 23.2771L218.944 30H212.891ZM209.567 20.0273H211.75C212.279 20.0273 212.676 19.9116 212.941 19.68C213.205 19.432 213.337 19.0516 213.337 18.5389C213.337 18.0758 213.197 17.712 212.916 17.4474C212.651 17.1827 212.262 17.0504 211.75 17.0504H209.567V20.0273Z" fill="white"/>
<path d="M3.94877 12.7906H0L0.171686 7.38248C0.171686 4.08612 2.57528 3.2048 3.77708 3.17618H15.28C16.4475 3.17618 16.7966 2.31776 16.8252 1.88854V0H20.9457V1.88854C20.9457 2.78131 21.8613 3.23341 22.3191 3.34787H33.5645C36.9296 3.75992 37.8281 6.32375 37.8567 7.55417V12.8764H33.7362V10.387C33.7362 8.12073 32.42 7.66863 31.7618 7.72585H21.9758C19.5035 7.72585 18.8854 5.83731 18.8854 4.89304C18.8854 6.95327 16.5963 7.69724 15.4517 7.8117H6.35237C4.42949 7.8117 3.94877 9.47132 3.94877 10.3011V12.7906Z" fill="url(#paint0_linear_327_7)"/>
<path d="M33.9077 18.6475L37.8564 18.6475L37.6848 34.3568C37.6848 37.6531 35.2812 38.5345 34.0794 38.5631L22.5764 38.5631C21.409 38.5631 21.0599 39.4215 21.0313 39.8507L21.0313 41.7393L16.9108 41.7393L16.9108 39.8507C16.9108 38.9579 15.9951 38.5058 15.5373 38.3914L4.2919 38.3914C0.926861 37.9793 0.0283743 35.4155 -0.000239666 34.1851L-0.0002383 18.5617L4.12022 18.5617L4.12022 31.3523C4.12022 33.6185 5.43647 34.0706 6.0946 34.0134L15.8807 34.0134C18.353 34.0134 18.971 35.9019 18.971 36.8462C18.971 34.786 21.2602 34.042 22.4047 33.9276L31.5041 33.9276C33.427 33.9276 33.9077 32.2679 33.9077 31.4381L33.9077 18.6475Z" fill="url(#paint1_linear_327_7)"/>
<circle cx="25.7529" cy="15.7949" r="3.6054" fill="#FC8C28"/>
<g clip-path="url(#clip0_327_7)">
<path d="M15.2798 13.5699L14.4145 12.7046L12.1895 14.9296L9.96441 12.7046L9.09912 13.5699L11.3242 15.7949L9.09912 18.02L9.96441 18.8853L12.1895 16.6602L14.4145 18.8853L15.2798 18.02L13.0548 15.7949L15.2798 13.5699Z" fill="#FD9228"/>
</g>
<path d="M19.0383 28.373C15.4308 28.373 12.26 25.9481 11.1256 24.7357C10.9043 24.6166 10.9058 24.8137 10.9341 24.9271C11.4659 26.6926 13.8567 30.2236 19.1659 30.2236C24.4751 30.2236 27.0645 26.7068 27.6955 24.9484C27.7976 24.574 27.5679 24.7073 27.4403 24.8208C26.1428 26.0048 22.6458 28.373 19.0383 28.373Z" fill="#FC8C28"/>
<path d="M10.4235 24.0338C9.62373 24.5103 9.56559 25.225 9.6365 25.5228C9.7386 25.6419 9.86338 25.5157 9.91301 25.4377C10.4873 24.5656 11.7423 24.3529 11.955 24.3316C12.1252 24.3146 12.1252 24.2111 12.1039 24.1615C11.877 23.9204 11.2233 23.5574 10.4235 24.0338Z" fill="#FC8C28"/>
<path d="M28.1848 23.9844C27.3513 23.5697 26.7189 23.9076 26.5068 24.1283C26.4619 24.2787 26.6356 24.3153 26.728 24.3148C27.7722 24.3258 28.6302 25.266 28.7632 25.4334C28.8696 25.5673 28.9567 25.5112 28.9869 25.4665C29.0668 25.1452 29.0183 24.3991 28.1848 23.9844Z" fill="#FC8C28"/>
<defs>
<linearGradient id="paint0_linear_327_7" x1="18.9283" y1="0" x2="18.9283" y2="12.8958" gradientUnits="userSpaceOnUse">
<stop stop-color="#45F5B9"/>
<stop offset="1" stop-color="#01C190"/>
</linearGradient>
<linearGradient id="paint1_linear_327_7" x1="18.9281" y1="41.7393" x2="18.9281" y2="18.5608" gradientUnits="userSpaceOnUse">
<stop stop-color="#3A8CFC"/>
<stop offset="1" stop-color="#3F7EF9"/>
</linearGradient>
<clipPath id="clip0_327_7">
<rect width="6.18068" height="6.18068" fill="white" transform="translate(9.09912 12.7046)"/>
</clipPath>
</defs>
</svg>
