<svg width="38" height="42" viewBox="0 0 38 42" fill="none" xmlns="http://www.w3.org/2000/svg">
<path d="M3.94877 12.7906H0L0.171686 7.38248C0.171686 4.08612 2.57528 3.2048 3.77708 3.17618H15.28C16.4475 3.17618 16.7966 2.31776 16.8252 1.88854V0H20.9457V1.88854C20.9457 2.78131 21.8613 3.23341 22.3191 3.34787H33.5645C36.9296 3.75992 37.8281 6.32375 37.8567 7.55417V12.8764H33.7362V10.387C33.7362 8.12073 32.42 7.66863 31.7618 7.72585H21.9758C19.5035 7.72585 18.8854 5.83731 18.8854 4.89304C18.8854 6.95327 16.5963 7.69724 15.4517 7.8117H6.35237C4.42949 7.8117 3.94877 9.47132 3.94877 10.3011V12.7906Z" fill="url(#paint0_linear_80_7)"/>
<path d="M33.9077 18.6475L37.8564 18.6475L37.6848 34.3568C37.6848 37.6531 35.2812 38.5345 34.0794 38.5631L22.5764 38.5631C21.409 38.5631 21.0599 39.4215 21.0313 39.8507L21.0313 41.7393L16.9108 41.7393L16.9108 39.8507C16.9108 38.9579 15.9951 38.5058 15.5373 38.3914L4.2919 38.3914C0.926861 37.9793 0.0283743 35.4155 -0.000239666 34.1851L-0.0002383 18.5617L4.12022 18.5617L4.12022 31.3523C4.12022 33.6185 5.43647 34.0706 6.0946 34.0134L15.8807 34.0134C18.353 34.0134 18.971 35.9019 18.971 36.8462C18.971 34.786 21.2602 34.042 22.4047 33.9276L31.5041 33.9276C33.427 33.9276 33.9077 32.2679 33.9077 31.4381L33.9077 18.6475Z" fill="url(#paint1_linear_80_7)"/>
<circle cx="25.7529" cy="15.7949" r="3.6054" fill="#FC8C28"/>
<g clip-path="url(#clip0_80_7)">
<path d="M15.2798 13.5699L14.4145 12.7046L12.1895 14.9296L9.96441 12.7046L9.09912 13.5699L11.3242 15.7949L9.09912 18.02L9.96441 18.8853L12.1895 16.6602L14.4145 18.8853L15.2798 18.02L13.0548 15.7949L15.2798 13.5699Z" fill="#FD9228"/>
</g>
<path d="M19.0383 28.373C15.4308 28.373 12.26 25.9481 11.1256 24.7357C10.9043 24.6166 10.9058 24.8137 10.9341 24.9271C11.4659 26.6926 13.8567 30.2236 19.1659 30.2236C24.4751 30.2236 27.0645 26.7068 27.6955 24.9484C27.7976 24.574 27.5679 24.7073 27.4403 24.8208C26.1428 26.0048 22.6458 28.373 19.0383 28.373Z" fill="#FC8C28"/>
<path d="M10.4235 24.0338C9.62373 24.5103 9.56559 25.225 9.6365 25.5228C9.7386 25.6419 9.86338 25.5157 9.91301 25.4377C10.4873 24.5656 11.7423 24.3529 11.955 24.3316C12.1252 24.3146 12.1252 24.2111 12.1039 24.1615C11.877 23.9204 11.2233 23.5574 10.4235 24.0338Z" fill="#FC8C28"/>
<path d="M28.1848 23.9844C27.3513 23.5697 26.7189 23.9076 26.5068 24.1283C26.4619 24.2787 26.6356 24.3153 26.728 24.3148C27.7722 24.3258 28.6302 25.266 28.7632 25.4334C28.8696 25.5673 28.9567 25.5112 28.9869 25.4665C29.0668 25.1452 29.0183 24.3991 28.1848 23.9844Z" fill="#FC8C28"/>
<defs>
<linearGradient id="paint0_linear_80_7" x1="18.9283" y1="0" x2="18.9283" y2="12.8958" gradientUnits="userSpaceOnUse">
<stop stop-color="#45F5B9"/>
<stop offset="1" stop-color="#01C190"/>
</linearGradient>
<linearGradient id="paint1_linear_80_7" x1="18.9281" y1="41.7393" x2="18.9281" y2="18.5608" gradientUnits="userSpaceOnUse">
<stop stop-color="#3A8CFC"/>
<stop offset="1" stop-color="#3F7EF9"/>
</linearGradient>
<clipPath id="clip0_80_7">
<rect width="6.18068" height="6.18068" fill="white" transform="translate(9.09912 12.7046)"/>
</clipPath>
</defs>
</svg>
